<?xml version="1.0" standalone="no"?>
<!DOCTYPE svg PUBLIC "-//W3C//DTD SVG 20010904//EN"
 "http://www.w3.org/TR/2001/REC-SVG-20010904/DTD/svg10.dtd">
<svg version="1.0" xmlns="http://www.w3.org/2000/svg"
  viewBox="0 0 1024.000000 1024.000000"
 preserveAspectRatio="xMidYMid meet">

<g transform="translate(0.000000,1024.000000) scale(0.100000,-0.100000)"
fill="#EEE" stroke="none">
<path d="M4905 9589 c-363 -38 -739 -186 -1034 -407 -95 -71 -273 -243 -357
-343 -186 -223 -336 -520 -409 -809 -44 -174 -56 -276 -65 -583 -23 -733 -88
-1002 -357 -1488 -216 -389 -303 -610 -367 -935 -114 -575 -97 -1409 45 -2114
126 -629 350 -1197 643 -1630 152 -224 283 -315 621 -427 914 -305 2340 -278
3157 60 216 89 326 179 454 367 314 462 539 1057 668 1760 98 535 123 1250 60
1740 -55 439 -153 721 -407 1179 -185 334 -257 532 -306 842 -30 189 -40 320
-51 646 -14 461 -60 673 -215 988 -317 647 -943 1081 -1664 1154 -117 12 -298
12 -416 0z m515 -334 c651 -116 1182 -581 1380 -1211 55 -176 70 -292 80 -599
16 -488 49 -736 136 -1035 61 -213 127 -361 306 -688 55 -101 120 -229 145
-284 44 -101 107 -277 101 -283 -2 -2 -39 -8 -83 -15 -134 -19 -342 -23 -472
-11 -592 58 -1122 355 -1470 824 -81 110 -174 265 -177 293 -1 13 20 22 87 40
438 118 791 474 902 910 13 54 29 118 35 142 13 55 13 309 0 364 -80 338 -161
502 -342 693 -186 197 -403 318 -683 382 -112 25 -378 25 -490 0 -351 -80
-637 -274 -824 -558 -95 -145 -140 -259 -201 -517 -13 -55 -13 -309 0 -364 40
-168 66 -254 101 -335 103 -234 292 -447 520 -584 89 -53 252 -120 342 -140
32 -7 60 -16 63 -20 6 -10 -13 -47 -74 -149 -169 -280 -447 -553 -727 -713
-336 -192 -731 -290 -1105 -274 -120 5 -290 23 -298 32 -6 6 57 182 101 283
25 55 90 183 145 284 179 327 245 475 306 688 87 299 120 547 136 1035 12 372
35 503 135 748 163 404 502 754 902 931 163 72 311 114 499 141 125 18 393 13
524 -10z m-480 -803 c0 -29 -47 -167 -80 -235 -119 -244 -351 -435 -609 -502
-35 -9 -65 -14 -68 -11 -8 8 25 123 56 196 80 188 239 362 421 462 101 55 280
113 280 90z m434 -7 c267 -70 517 -287 626 -544 26 -62 60 -170 60 -194 0 -28
-236 60 -343 129 -146 94 -290 265 -357 423 -26 61 -60 170 -60 193 0 11 7 10
74 -7z m-196 -515 c173 -262 457 -459 762 -530 143 -33 132 -20 105 -128 -91
-355 -395 -633 -762 -697 -496 -87 -988 240 -1096 728 -15 66 -15 67 6 72 200
43 311 82 433 150 159 89 335 253 436 405 29 44 55 80 58 80 3 0 29 -36 58
-80z m-48 -1928 c0 -4 32 -57 71 -118 320 -492 800 -842 1373 -998 67 -19 156
-39 198 -46 l76 -12 28 -62 c226 -504 215 -1100 -30 -1602 -514 -1053 -1823
-1407 -2797 -756 -448 300 -743 767 -830 1317 -17 105 -17 437 -1 540 27 162
87 369 146 500 l27 60 112 22 c624 121 1180 495 1529 1027 43 66 78 123 78
128 0 4 5 8 10 8 6 0 10 -4 10 -8z m-2429 -1176 c52 -8 146 -17 210 -21 l116
-8 -33 -98 c-78 -232 -109 -436 -108 -709 0 -226 14 -338 65 -544 195 -779
819 -1407 1599 -1610 219 -57 327 -70 565 -70 240 -1 361 14 575 70 387 101
721 294 1010 584 182 182 312 364 426 595 158 323 226 620 228 995 0 257 -31
460 -108 689 l-33 98 112 7 c62 4 157 13 211 21 53 8 98 14 99 13 6 -8 26
-217 36 -368 14 -209 6 -619 -16 -870 -47 -530 -157 -1012 -336 -1470 -99
-254 -286 -603 -397 -739 -91 -111 -344 -229 -654 -305 -755 -184 -1804 -163
-2483 51 -183 58 -392 168 -456 241 -114 130 -329 537 -439 831 -279 752 -392
1702 -299 2524 7 59 13 107 14 107 1 0 44 -6 96 -14z"/>
</g>
</svg>
